<svg width="26" height="12" viewBox="0 0 26 12" fill="none" xmlns="http://www.w3.org/2000/svg">
<path d="M25.7002 0.00324334C25.7 0.00280683 25.7 0.00227776 25.7004 0.00192391C25.7012 0.00109963 25.7004 -0.000246732 25.6993 1.73785e-06L25.2605 0.0979282C25.259 0.0982575 25.2577 0.0990164 25.2567 0.100109C25.2556 0.101195 25.2543 0.101952 25.2528 0.102284L18.2708 1.68613C18.1653 1.71006 18.099 1.81488 18.1227 1.92044C18.1465 2.02636 18.2517 2.09286 18.3576 2.06886L20.0725 1.68006C21.7948 1.28959 22.9855 3.12156 21.7585 4.39176C19.8003 6.41903 17.0303 8.7207 13.56 10.1736C7.38686 12.7565 1.38186 9.72846 0.304338 9.13474C0.208036 9.08168 0.0876159 9.11306 0.0300222 9.20672C-0.0274001 9.30011 -0.000651411 9.41853 0.0952234 9.47169C1.18313 10.0749 7.35162 13.1978 13.7111 10.5373C17.2981 9.03734 20.1436 6.64469 22.1382 4.55957C22.9916 3.66749 24.4732 4.34731 24.0429 5.50441C23.7275 6.35243 23.3549 7.21535 22.9254 8.09136L22.7321 8.4824C22.6839 8.57985 22.724 8.6979 22.8216 8.7458C22.9188 8.79352 23.0363 8.75359 23.0843 8.65652L23.2781 8.2645C24.6613 5.45397 25.4704 2.75969 25.682 0.266348L25.7061 0.00495155C25.7063 0.00325228 25.7042 0.00230723 25.703 0.00354037L25.7027 0.0038328C25.702 0.00458715 25.7008 0.00440271 25.7003 0.00347215L25.7002 0.00324334Z" fill="black"/>
</svg>
