<svg width="31" height="30" viewBox="0 0 31 30" fill="none" xmlns="http://www.w3.org/2000/svg">
<path d="M31 7.81522C30.9402 7.35452 30.8404 6.83373 30.7606 6.37304C30.242 3.82921 26.8906 1.70601 24.0181 1.64592C21.5046 1.60585 19.6294 3.04803 17.6346 4.18975C17.4351 4.30993 17.2556 4.53026 17.0361 4.59035C16.298 4.81068 15.9988 5.97244 15.2807 5.67198C14.7221 5.41159 14.5226 4.47017 14.1037 3.82921C12.3682 1.16519 8.33865 -0.717647 4.96737 0.263832C1.27692 1.3054 -0.0197222 5.23132 0.00022622 8.09564C0.0600713 11.2604 0.95775 14.2449 2.1746 17.1092C3.95001 21.0952 8.29875 30.3692 9.91457 29.9886C10.1938 29.9686 10.4731 29.9285 10.7325 29.9085L10.7125 29.8484C32.3365 24.0196 30.9402 7.79518 30.9402 7.79518H31V7.81522ZM14.1037 10.4792C14.7022 11.0601 14.5426 12.1017 14.2833 12.963C13.984 13.7642 13.6449 14.4252 12.6674 14.6054C12.0091 14.7056 11.8097 14.4652 11.9892 13.8643C12.2286 12.9429 12.4879 12.0216 13.1462 11.1402C13.4654 11.0601 13.4255 9.77817 14.1037 10.4792ZM26.0528 15.9475C23.8585 19.4127 21.4048 21.8363 18.652 23.8594C16.5773 25.3617 14.1636 26.3431 11.8097 27.2645C10.0742 27.9456 9.97441 27.9456 8.77751 26.5635C8.55808 26.3431 8.39849 26.1028 8.2389 25.8624C6.12438 22.1368 4.6083 18.1107 2.95259 14.1648C1.87537 11.5609 1.19713 8.79669 1.73573 5.91235C1.99506 4.87078 2.1746 3.80918 2.95259 2.98794C4.54846 1.22528 7.78009 1.02498 9.4757 2.80767C10.5729 3.94939 11.5104 5.17123 12.4081 6.49322C13.0066 7.35452 12.827 8.03555 12.2086 8.89684C11.2112 10.2789 10.2337 11.7411 9.99436 13.5038C9.73503 15.2064 10.3734 16.308 11.8296 16.8488C12.6674 17.1693 14.5426 16.4282 15.141 15.5469C16.3978 13.5438 16.9763 11.4206 16.318 9.07712C16.0587 8.09564 16.318 7.4747 17.096 6.83374C18.8315 5.47168 20.8463 4.59035 22.881 3.82921C25.0753 2.98794 27.6886 4.65044 28.1274 6.95391C28.7458 10.5193 27.2497 13.5038 26.0528 15.9475Z" fill="black"/>
</svg>
