<svg width="76" height="80" viewBox="0 0 76 80" fill="none" xmlns="http://www.w3.org/2000/svg">
<path d="M48.308 38.9727C54.4911 35.3254 58.6741 28.62 58.6741 20.9372C58.6741 9.39203 49.2812 0 37.7369 0C26.1926 0 16.7997 9.39294 16.7997 20.9372C16.7997 28.6159 20.9693 35.3395 27.1658 38.9727C11.7955 41.3834 0 54.7224 0 70.7545V78.3527C0 79.2545 0.73214 80 1.64732 80C2.5625 80 3.29464 79.2679 3.29464 78.3527V70.7545C3.29464 54.8219 16.2547 41.8618 32.1873 41.8618H43.3168C59.2494 41.8618 72.2095 54.8219 72.2095 70.7545V78.3527C72.2095 79.2545 72.9416 80 73.8568 80C74.772 80 75.5041 79.2679 75.5041 78.3527V70.7545C75.5041 54.719 63.7098 41.3841 48.3383 38.9727H48.308ZM20.0897 20.9372C20.0897 11.2095 28.0093 3.29029 37.7366 3.29029C47.4638 3.29029 55.3835 11.21 55.3835 20.9372C55.3835 30.6649 47.4638 38.5841 37.7366 38.5841C28.0093 38.5841 20.0897 30.6644 20.0897 20.9372Z" fill="#F8F7F1"/>
</svg>
