<svg width="80" height="80" viewBox="0 0 80 80" fill="none" xmlns="http://www.w3.org/2000/svg">
<path d="M67.2766 66.4961C69.8684 64.271 71.3665 61.0674 71.3665 57.5977C71.3665 51.0806 66.0647 45.7783 59.5471 45.7783C53.0295 45.7783 47.7278 51.0806 47.7278 57.5977C47.7278 61.0703 49.2288 64.2754 51.8235 66.501C46.8303 68.3584 42.6116 71.9863 40.0491 76.6211C37.4797 71.9307 33.3215 68.3545 28.2766 66.4961C30.8684 64.271 32.3665 61.0674 32.3665 57.5977C32.3665 51.0806 27.0647 45.7783 20.5471 45.7783C14.0295 45.7783 8.72779 51.0806 8.72779 57.5977C8.72779 61.0703 10.2288 64.2754 12.8235 66.501C7.13697 68.6167 2.45533 73.0283 0.080325 78.6084C-0.136472 79.1167 0.100833 79.7036 0.608645 79.9199C0.736575 79.9746 0.869388 80.0005 1.00025 80.0005C1.38892 80.0005 1.75806 79.772 1.92017 79.3916C4.32056 73.7524 9.31177 69.4243 15.2727 67.814C15.6604 67.7095 15.9475 67.3838 16.0022 66.9863C16.0579 66.5894 15.8704 66.1973 15.5266 65.9912C12.5217 64.189 10.7278 61.0513 10.7278 57.5977C10.7278 52.1831 15.1331 47.7783 20.5471 47.7783C25.9612 47.7783 30.3665 52.1831 30.3665 57.5977C30.3665 61.0498 28.5735 64.187 25.5715 65.9893C25.2278 66.1958 25.0403 66.5874 25.0959 66.9844C25.1506 67.3818 25.4377 67.7075 25.8254 67.812C31.7209 69.4053 36.512 73.4766 39.0002 78.9971V79C39.0002 79.4751 39.3352 79.8848 39.8001 79.98C40.2737 80.0762 40.7346 79.8281 40.9202 79.3916C43.3206 73.7524 48.3118 69.4243 54.2727 67.814C54.6604 67.7095 54.9475 67.3838 55.0022 66.9863C55.0579 66.5894 54.8704 66.1973 54.5266 65.9912C51.5217 64.189 49.7278 61.0513 49.7278 57.5977C49.7278 52.1831 54.1331 47.7783 59.5471 47.7783C64.9612 47.7783 69.3665 52.1831 69.3665 57.5977C69.3665 61.0498 67.5735 64.187 64.5715 65.9893C64.2278 66.1958 64.0403 66.5874 64.0959 66.9844C64.1506 67.3818 64.4377 67.7075 64.8254 67.812C70.7883 69.4238 75.6213 73.5693 78.0842 79.1865C78.3069 79.6919 78.8948 79.9238 79.4016 79.7007C79.9075 79.4785 80.1379 78.8887 79.9163 78.3828C77.4797 72.8271 72.9358 68.5811 67.2766 66.4961Z" fill="#F8F7F1"/>
<path d="M52.6604 37.5474C52.8489 37.7329 53.1018 37.835 53.3616 37.835C53.4163 37.835 53.4719 37.8306 53.5276 37.8213C56.7493 37.2798 59.1985 35.7134 60.804 33.1655C61.5461 31.9883 62.9133 31.2568 64.3723 31.2568C72.9895 31.2568 80.0002 24.2461 80.0002 15.6284C80.0002 7.01074 72.9895 0 64.3723 0H57.7942C49.177 0 42.1663 7.01074 42.1663 15.6284C42.1663 22.3105 46.3167 28.1499 52.5618 30.3589C52.8713 33.3452 52.3782 36.6489 52.3733 36.6846C52.3245 37.0015 52.4319 37.3223 52.6604 37.5474ZM44.1663 15.6284C44.1663 8.11377 50.2795 2 57.7942 2H64.3723C71.887 2 78.0002 8.11377 78.0002 15.6284C78.0002 23.1431 71.887 29.2568 64.3723 29.2568C62.2004 29.2568 60.2346 30.3193 59.1125 32.0991C58.0481 33.7866 56.5071 34.9409 54.5198 35.5415C54.6584 34.0552 54.7844 31.6567 54.4661 29.4648C54.4114 29.0825 54.1409 28.7666 53.7717 28.6528C48.0266 26.8804 44.1663 21.6465 44.1663 15.6284Z" fill="#F8F7F1"/>
<path d="M15.6292 31.2568C17.0881 31.2568 18.4553 31.9883 19.1975 33.1655C20.803 35.7134 23.2522 37.2798 26.4739 37.8213C26.5295 37.8306 26.5852 37.835 26.6399 37.835C26.8997 37.835 27.1526 37.7329 27.3411 37.5474C27.5696 37.3223 27.677 37.0015 27.6282 36.6846C27.6233 36.6489 27.1301 33.3452 27.4397 30.3589C33.6848 28.1499 37.8352 22.3105 37.8352 15.6284C37.8352 7.01074 30.8245 0 22.2073 0H15.6292C7.01099 0 0.000244141 7.01074 0.000244141 15.6284C0.000244141 24.2461 7.01099 31.2568 15.6292 31.2568ZM15.6292 2H22.2073C29.7219 2 35.8352 8.11377 35.8352 15.6284C35.8352 21.6465 31.9749 26.8804 26.2297 28.6528C25.8606 28.7666 25.5901 29.0825 25.5354 29.4648C25.217 31.6567 25.343 34.0552 25.4817 35.5415C23.4944 34.9409 21.9534 33.7866 20.8889 32.0991C19.7668 30.3193 17.801 29.2568 15.6292 29.2568C8.1145 29.2568 2.00024 23.1431 2.00024 15.6284C2.00024 8.11377 8.1145 2 15.6292 2Z" fill="#F8F7F1"/>
</svg>
