<svg width="75" height="80" viewBox="0 0 75 80" fill="none" xmlns="http://www.w3.org/2000/svg">
<path d="M74.9524 66.6522C74.8579 65.9828 74.6293 65.3391 74.2802 64.7595C73.931 64.1799 73.4685 63.6762 72.9201 63.2783C72.3717 62.8805 71.7486 62.5967 71.0878 62.4438C70.4271 62.2908 69.7423 62.2719 69.0741 62.3881L61.7934 63.6499L63.2418 62.2063C63.5614 61.8879 63.815 61.5099 63.988 61.0939C64.161 60.6778 64.25 60.2319 64.25 59.7815C64.25 59.3311 64.161 58.8852 63.988 58.4691C63.815 58.0531 63.5614 57.6751 63.2418 57.3567C62.5867 56.7325 61.7153 56.3841 60.8089 56.3841C59.9026 56.3841 59.0312 56.7325 58.3761 57.3567L50.207 65.4986C49.9744 65.489 49.7427 65.4636 49.5135 65.4227L41.682 63.8138C41.5779 63.7923 41.4828 63.7396 41.4097 63.6627C41.3365 63.5858 41.2888 63.4884 41.2728 63.3836C41.2568 63.2789 41.2735 63.1717 41.3204 63.0767C41.3674 62.9816 41.4425 62.9031 41.5355 62.8519L51.0085 57.6387C51.8899 57.1538 52.6173 56.4325 53.1085 55.5566C53.5997 54.6808 53.8349 53.6853 53.7875 52.683C53.7401 51.6807 53.412 50.7117 52.8404 49.8857C52.2688 49.0598 51.4765 48.4099 50.5532 48.0097C49.9044 47.7261 49.2056 47.5739 48.4972 47.5619C47.7889 47.5498 47.0852 47.6782 46.4271 47.9396L26.1419 55.9067H14.6698V52.7233H0V80H14.6698V76.8148L41.2052 76.8065L70.7027 72.342C72.0183 72.1386 73.2009 71.4282 73.9959 70.3639C74.7908 69.2996 75.1343 67.9666 74.9524 66.6522ZM59.4159 58.3931C59.7912 58.0361 60.2901 57.837 60.8089 57.837C61.3278 57.837 61.8266 58.0361 62.202 58.3931C62.3851 58.5753 62.5303 58.7918 62.6293 59.03C62.7284 59.2683 62.7794 59.5236 62.7794 59.7815C62.7794 60.0394 62.7284 60.2948 62.6293 60.533C62.5303 60.7712 62.3851 60.9877 62.202 61.17L59.2761 64.0863L52.5309 65.2553L59.4159 58.3931ZM13.1991 78.5342H1.47064V54.1891H13.1991V78.5342ZM70.4816 70.8935L41.0946 75.3493H14.6698V57.3725H26.2812L46.9671 49.3023C47.8935 48.9383 48.9241 48.9395 49.8497 49.3055C50.7752 49.6714 51.5263 50.3748 51.9504 51.2727C52.3746 52.1706 52.4399 53.1957 52.1332 54.1398C51.8265 55.084 51.1707 55.8764 50.299 56.3562L40.826 61.5693C40.4697 61.765 40.1821 62.065 40.002 62.4287C39.822 62.7924 39.7582 63.2023 39.8193 63.6033C39.8803 64.0043 40.0633 64.3769 40.3435 64.671C40.6236 64.9651 40.9876 65.1665 41.3862 65.248L49.2176 66.8583C50.0194 67.024 50.8455 67.0362 51.6519 66.8941L69.3269 63.8309C69.8008 63.7489 70.2864 63.7627 70.7549 63.8713C71.2233 63.98 71.6651 64.1813 72.054 64.4634C72.4429 64.7456 72.7709 65.1027 73.0187 65.5136C73.2664 65.9245 73.4288 66.3808 73.4961 66.8555C73.6251 67.7879 73.3814 68.735 72.8176 69.49C72.2537 70.245 71.4148 70.7491 70.4816 70.8935ZM5.94433 74.8599H7.41497V76.38H5.94433V74.8599ZM10.772 73.2338H9.30138V71.7136H10.772V73.2338ZM9.32724 74.8599H10.7979V76.38H9.32724V74.8599ZM38.5605 46.6098L60.246 24.4933L60.3379 24.3773C62.2921 21.3529 63.1534 17.7549 62.7796 14.1769C62.4059 10.5989 60.8193 7.25489 58.2819 4.69661C55.7444 2.13833 52.4077 0.518714 48.8224 0.105032C45.237 -0.30865 41.6173 0.508325 38.5605 2.42114C35.5037 0.508299 31.8839 -0.308713 28.2985 0.104918C24.713 0.518549 21.3762 2.13811 18.8387 4.69634C16.3011 7.25457 14.7144 10.5986 14.3405 14.1766C13.9665 17.7546 14.8276 21.3528 16.7817 24.3773L38.5605 46.6098ZM19.942 5.66898C22.3035 3.32091 25.409 1.86164 28.729 1.53982C32.0491 1.218 35.3785 2.05354 38.1497 3.90407L38.5605 4.1789L38.9712 3.90407C41.7161 2.06649 45.0119 1.22664 48.3048 1.52567C51.5977 1.8247 54.687 3.24437 57.0535 5.54609C59.4199 7.84781 60.9192 10.8913 61.2995 14.165C61.6797 17.4387 60.9177 20.7431 59.1415 23.5228L38.5605 44.5114L17.9787 23.5228C16.2318 20.7642 15.4748 17.4968 15.8314 14.2541C16.188 11.0114 17.637 7.98499 19.942 5.66898ZM52.7822 9.50225C51.7769 8.49574 50.5647 7.71831 49.2291 7.22348L49.7433 5.84934C51.2766 6.41757 52.6681 7.31025 53.822 8.46592C55.1051 9.74877 56.0633 11.3177 56.6172 13.0429C57.1711 14.7681 57.3049 16.6 57.0074 18.3869L55.5569 18.1465C55.8163 16.5895 55.6999 14.9934 55.2174 13.4902C54.7349 11.987 53.9001 10.62 52.7822 9.50225ZM55.0815 19.9343L56.4631 20.4381C56.1749 21.2214 55.8001 21.9704 55.3457 22.6711L54.1106 21.8781C54.5054 21.268 54.831 20.616 55.0815 19.9343Z" fill="#A86373"/>
</svg>
