<svg width="51" height="45" viewBox="0 0 51 45" fill="none" xmlns="http://www.w3.org/2000/svg">
<path d="M50.9425 6.49601C50.8449 6.45015 50.749 6.55069 50.6568 6.59831C50.6405 6.60713 50.626 6.62124 50.6115 6.63359C49.3925 7.58076 48.036 8.31275 46.6651 9.01476C43.6971 10.5352 40.6133 11.8175 37.5766 13.1933C35.7571 14.017 33.9647 14.8848 32.2303 15.869C29.7777 17.2624 27.5169 18.8816 25.6649 21C25.5292 21.1552 25.4533 21.134 25.3321 20.9912C24.9667 20.5625 24.5779 20.1516 24.1673 19.7653C22.2339 17.9486 20.0237 16.5075 17.6743 15.2622C16.0826 14.4191 14.4531 13.6501 12.8072 12.9146C10.1231 11.7152 7.41741 10.5599 4.78944 9.24229C3.53967 8.61613 2.30436 7.96528 1.14683 7.1839C0.844783 6.9793 0.557208 6.75353 0.255164 6.55069C0.0580214 6.4184 0.00737928 6.44309 0.00376199 6.67239C-0.0034726 7.06925 0.00195334 7.46611 0.00195334 7.86298C0.0109966 10.4629 0.714561 12.8229 2.10903 14.9747C2.95548 16.28 3.99726 17.4159 5.23256 18.3825C5.45684 18.5571 5.58887 18.7387 5.60153 19.0404C5.63951 19.9399 5.82218 20.8218 6.0772 21.6843C6.69214 23.7692 7.96543 25.4501 9.54981 26.93C10.9298 28.2176 12.5069 29.2494 14.0949 30.2654C15.9814 31.4736 17.9148 32.6113 19.6764 33.9959C20.8014 34.8796 21.8378 35.8338 22.5449 37.0826C22.9591 37.8128 23.2431 38.5977 23.5162 39.3844C24.0696 40.9771 24.6791 42.5469 25.3375 44.1009C25.3737 44.1838 25.3899 44.3125 25.4985 44.3125C25.607 44.3125 25.6323 44.1855 25.6649 44.1026C26.0628 43.0796 26.5222 42.0795 26.8857 41.0424C27.1986 40.1499 27.5332 39.2627 27.8461 38.3702C28.4646 36.5958 29.671 35.257 31.1396 34.107C32.9266 32.7083 34.8727 31.5371 36.7971 30.3342C38.4882 29.2776 40.1304 28.1558 41.5846 26.7977C42.8868 25.5806 43.9412 24.196 44.6159 22.5521C45.0789 21.4268 45.3014 20.2521 45.4063 19.0527C45.4316 18.7652 45.5238 18.5588 45.7644 18.386C45.9977 18.2184 46.2039 18.0173 46.4191 17.8268C48.4231 16.0454 49.8121 13.8935 50.5284 11.336C50.948 9.83317 51.0293 8.30217 50.9877 6.75705C50.9859 6.66886 51.0366 6.5401 50.9443 6.49777L50.9425 6.49601ZM22.2791 34.7332C22.2103 34.7649 22.1724 34.7049 22.1362 34.6661C21.7636 34.2816 21.3856 33.9024 20.9732 33.5567C19.7198 32.5072 18.3453 31.6235 16.9689 30.7398C15.0915 29.5352 13.1508 28.4222 11.4055 27.0305C9.91515 25.8399 8.6292 24.4783 7.76105 22.7779C7.27272 21.8219 6.98695 20.806 6.81513 19.7565C6.8079 19.7106 6.78438 19.6559 6.8296 19.626C6.87301 19.5977 6.92184 19.626 6.96344 19.6507C7.23474 19.8147 7.50784 19.977 7.77733 20.1445C9.1718 21.0053 10.6458 21.7179 12.1398 22.3969C14.0714 23.2753 16.0248 24.1061 17.8822 25.1273C18.6166 25.5313 19.3256 25.974 20.002 26.4679C21.2825 27.4009 21.93 28.6479 22.0078 30.1966C22.0801 31.65 22.0711 33.1069 22.3026 34.5497C22.3062 34.5691 22.3062 34.5868 22.308 34.6115C22.3062 34.6503 22.3297 34.7085 22.2773 34.7332H22.2791ZM22.4798 27.1046C22.4636 27.1716 22.4708 27.2704 22.3822 27.2863C22.3243 27.2969 22.2972 27.2192 22.2646 27.1734C21.5086 26.071 20.4469 25.2967 19.3201 24.6035C17.875 23.7145 16.3196 23.0284 14.7678 22.3423C12.6697 21.4127 10.5735 20.4761 8.58218 19.3385C6.90014 18.3772 5.37183 17.2219 4.10397 15.7667C2.58832 14.0258 1.63516 12.0309 1.31684 9.76086C1.27705 9.47159 1.24269 9.18056 1.20832 8.91069C1.2246 8.80839 1.16491 8.70609 1.24449 8.64964C1.31865 8.59673 1.38557 8.67963 1.44887 8.71667C3.30816 9.83141 5.25427 10.7839 7.23293 11.6764C9.39426 12.6518 11.5755 13.5848 13.7314 14.5708C16.1369 15.6697 18.49 16.862 20.6585 18.3736C22.1145 19.3878 23.4692 20.5096 24.5851 21.8872C24.7207 22.0547 24.7425 22.1765 24.614 22.3581C23.6048 23.8115 22.8922 25.3937 22.478 27.1028L22.4798 27.1046ZM26.5891 38.3896C26.2961 39.3509 25.9307 40.2857 25.5961 41.2311C25.5762 41.2875 25.5853 41.3846 25.4967 41.3828C25.4171 41.3828 25.4135 41.2911 25.3918 41.2329C24.4621 38.7547 23.641 36.2483 23.3281 33.6131C23.0025 30.8651 23.14 28.1629 24.18 25.5524C24.4892 24.7746 24.898 24.0461 25.3339 23.3318C25.4894 23.0778 25.5039 23.0795 25.6667 23.3388C26.6759 24.9474 27.3216 26.6813 27.6001 28.5492C27.7321 29.4293 27.7955 30.3148 27.7973 31.3025C27.7774 33.6607 27.3035 36.0437 26.5891 38.3913V38.3896ZM44.1402 19.797C44.1348 19.8341 44.1275 19.8711 44.1221 19.9082C43.8671 21.575 43.2359 23.0813 42.1832 24.4289C41.0058 25.9369 39.5408 27.1293 37.9637 28.2087C36.0935 29.4893 34.1203 30.6217 32.2411 31.8899C31.0221 32.7118 29.8537 33.6025 28.8463 34.6749C28.8029 34.7208 28.7703 34.8125 28.6943 34.779C28.6184 34.7455 28.6672 34.6626 28.6763 34.6026C28.8463 33.4791 28.8915 32.3467 28.9331 31.2143C28.9656 30.3253 28.9946 29.4381 29.2966 28.5862C29.5607 27.8401 30.0563 27.2528 30.6549 26.7465C31.7835 25.7923 33.0894 25.1044 34.4079 24.4447C35.9072 23.6951 37.4554 23.0443 38.9783 22.3423C40.6513 21.5697 42.2972 20.7513 43.8526 19.7688C43.8924 19.7424 43.9322 19.7159 43.9756 19.693C44.0244 19.6665 44.0769 19.6083 44.1312 19.6418C44.1872 19.6771 44.1456 19.7441 44.1384 19.797H44.1402ZM49.7615 8.92657C49.7633 8.95479 49.7579 8.98301 49.7579 9.01123C49.6132 10.5493 49.2153 12.0186 48.5009 13.4032C47.6417 15.0682 46.4101 16.4334 44.9432 17.6099C43.377 18.8657 41.6316 19.8341 39.8175 20.7019C37.3668 21.8748 34.8275 22.8661 32.4364 24.159C31.1776 24.8398 30.0056 25.6424 29.0705 26.7307C28.953 26.8682 28.8535 27.0199 28.7432 27.1628C28.7034 27.214 28.6907 27.3145 28.6184 27.3039C28.528 27.2898 28.546 27.184 28.528 27.1152C28.2802 26.131 27.9329 25.182 27.4916 24.2648C27.1751 23.6052 26.8097 22.9719 26.3793 22.3758C26.24 22.1835 26.269 22.0565 26.4118 21.8784C27.9094 20.0387 29.7976 18.6506 31.8143 17.4106C33.7839 16.2006 35.8674 15.1952 37.9781 14.2463C40.4922 13.1157 43.0315 12.0397 45.5202 10.8527C46.8695 10.2089 48.1861 9.51039 49.4793 8.76429C49.5589 8.71843 49.6331 8.60555 49.7289 8.66023C49.823 8.71491 49.7542 8.83308 49.7615 8.92304V8.92657ZM27.7954 11.6288C28.121 12.0997 28.2458 12.6236 28.2567 13.3714C28.1029 14.5091 27.5875 15.6168 26.2961 16.2465C25.7065 16.534 25.1223 16.4916 24.5471 16.1847C23.3245 15.5339 22.5377 13.9411 22.7873 12.6059C22.9754 11.5988 23.8689 10.6851 24.8546 10.4911C26.0374 10.2565 27.1461 10.6886 27.7954 11.6288Z" fill="url(#paint0_linear_2112_331)"/>
<path d="M25.5056 7.58447C32.7475 7.58447 38.6183 5.8859 38.6183 3.79223C38.6183 1.69857 32.7475 0 25.5056 0C18.2638 0 12.3929 1.69857 12.3929 3.79223C12.3929 5.8859 18.2638 7.58447 25.5056 7.58447ZM25.5056 1.23468C31.6496 1.23468 36.6288 2.37941 36.6288 3.79223C36.6288 5.20506 31.6496 6.34979 25.5056 6.34979C19.3617 6.34979 14.3825 5.20506 14.3825 3.79223C14.3825 2.37941 19.3617 1.23468 25.5056 1.23468Z" fill="url(#paint1_linear_2112_331)"/>
<defs>
<linearGradient id="paint0_linear_2112_331" x1="-0.0034726" y1="25.3902" x2="50.9968" y2="25.3902" gradientUnits="userSpaceOnUse">
<stop stop-color="#EFDFCA"/>
<stop offset="1" stop-color="#EFDFCA"/>
</linearGradient>
<linearGradient id="paint1_linear_2112_331" x1="12.3929" y1="3.79223" x2="38.6183" y2="3.79223" gradientUnits="userSpaceOnUse">
<stop stop-color="#EFDFCA"/>
<stop offset="0.98" stop-color="#EFDFCA"/>
</linearGradient>
</defs>
</svg>
