<svg width="84" height="54" viewBox="0 0 84 54" fill="none" xmlns="http://www.w3.org/2000/svg">
<path d="M19.3695 0C8.69957 0 0 8.67859 0 19.3695C0 29.2639 7.58851 37.5442 17.2313 38.6133C17.483 42.8268 15.9946 46.8307 12.7454 50.5411C11.9906 51.4006 12.0746 52.7212 12.955 53.4969C13.3533 53.8323 13.8354 54 14.3386 54C14.8626 54 15.3867 53.8113 15.785 53.413C15.9736 53.3082 16.4139 53.1614 16.6654 53.0567C17.0637 52.9099 17.441 52.7841 17.6925 52.6374C26.1405 48.361 32.618 42.0302 35.9511 34.8191C37.8797 30.6265 38.9488 25.7213 38.9488 21.1095C38.9488 20.4806 38.9278 19.8516 38.8858 19.2228C38.194 8.61564 29.4316 0 19.3695 0Z" fill="black"/>
<path d="M64.2715 0C53.6016 0 44.902 8.67859 44.902 19.3695C44.902 29.2639 52.4905 37.5442 62.1544 38.6133C62.385 42.8268 60.8965 46.8307 57.6683 50.5411C56.8927 51.4006 56.9975 52.7212 57.8569 53.4969C58.2552 53.8323 58.7584 54 59.2405 54C59.7646 54 60.2887 53.8113 60.708 53.413C60.8756 53.3082 61.3158 53.1614 61.5674 53.0567C61.9866 52.9099 62.343 52.7841 62.6155 52.6374C71.0426 48.361 77.52 42.0302 80.8531 34.8191C82.7816 30.6265 83.8507 25.7213 83.8507 21.1095C83.8507 20.4806 83.8298 19.8516 83.7878 19.2228C83.0961 8.61564 74.3546 0 64.2715 0Z" fill="black"/>
</svg>
